<svg xmlns="http://www.w3.org/2000/svg" xmlns:xlink="http://www.w3.org/1999/xlink" version="1.1" id="Layer_2_1_" x="0px" y="0px" viewBox="0 0 1500 289.9" style="enable-background:new 0 0 1500 289.9;" xml:space="preserve" class="editable-svg logo replaced-svg">
 <path style="fill:#FA7800;" d="M267.3,167.5c-79.9,0-144.9-65-144.9-144.9c0-12.5,10.1-22.6,22.6-22.6s22.6,10.1,22.6,22.6 c0,55,44.8,99.8,99.8,99.8c12.5,0,22.6,10.1,22.6,22.6S279.8,167.5,267.3,167.5z">
</path>
 <path style="fill:#FFAF44;" d="M144.9,289.9c-12.5,0-22.6-10.1-22.6-22.6c0-55-44.8-99.8-99.8-99.8C10.1,167.5,0,157.4,0,145 s10.1-22.6,22.6-22.6c79.9,0,145,65,145,144.9C167.5,279.8,157.4,289.9,144.9,289.9L144.9,289.9z">
</path>
 <path style="fill:#E91889;" d="M144.9,289.9c-12.5,0-22.6-10.1-22.6-22.6c0-79.9,65-144.9,144.9-144.9c12.5,0,22.6,10.1,22.6,22.6 s-10.1,22.6-22.6,22.6c-55,0-99.8,44.8-99.8,99.8C167.5,279.8,157.4,289.9,144.9,289.9L144.9,289.9z">
</path>
 <path style="fill:#6020D6;" d="M22.6,167.5C10.1,167.5,0,157.4,0,144.9s10.1-22.6,22.6-22.6c55,0,99.8-44.8,99.8-99.8 c0-12.5,10.1-22.6,22.6-22.6s22.6,10.1,22.6,22.6C167.5,102.5,102.5,167.5,22.6,167.5L22.6,167.5z">
</path>
 <path style="fill:#7F40BF;" d="M167.5,22.6c0-12.5-10.1-22.6-22.6-22.6s-22.6,10.1-22.6,22.6c0,28.5,8.3,55.1,22.6,77.6 C159.2,77.7,167.5,51.1,167.5,22.6z">
</path>
 <path style="fill:#BB67C8;" d="M22.6,122.4C10.1,122.4,0,132.5,0,144.9s10.1,22.6,22.6,22.6c28.5,0,55.1-8.3,77.6-22.6 C77.7,130.7,51.1,122.4,22.6,122.4z">
</path>
 <path style="fill:#FF0062;" d="M267.3,122.4c-28.5,0-55.1,8.3-77.6,22.6c22.4,14.3,49,22.6,77.6,22.6c12.5,0,22.6-10.1,22.6-22.6 S279.8,122.4,267.3,122.4z">
</path>
 <path style="fill:#FF337E;" d="M122.4,267.3c0,12.5,10.1,22.6,22.6,22.6s22.6-10.1,22.6-22.6c0-28.5-8.3-55.1-22.6-77.6 C130.7,212.2,122.4,238.8,122.4,267.3z">
</path>
 </svg>
